<?xml version="1.0" standalone="no"?>
<!DOCTYPE svg PUBLIC "-//W3C//DTD SVG 20010904//EN"
 "http://www.w3.org/TR/2001/REC-SVG-20010904/DTD/svg10.dtd">
<svg version="1.0" xmlns="http://www.w3.org/2000/svg"
 width="1024.000000pt" height="1024.000000pt" viewBox="0 0 1024.000000 1024.000000"
 preserveAspectRatio="xMidYMid meet">

<g transform="translate(0.000000,1024.000000) scale(0.100000,-0.100000)"
fill="#000000" stroke="none">
<path d="M0 5120 l0 -5120 5120 0 5120 0 0 5120 0 5120 -5120 0 -5120 0 0
-5120z m5506 2295 c189 -96 462 -237 606 -313 145 -77 382 -201 528 -277 477
-249 714 -376 734 -393 24 -21 49 -61 156 -247 48 -82 160 -269 249 -413 89
-145 171 -282 182 -305 25 -48 22 -111 -7 -150 -20 -28 -121 -86 -357 -207
l-146 -75 -3 -592 c-3 -681 7 -617 -109 -687 -116 -71 -1679 -961 -2002 -1141
-186 -103 -217 -110 -299 -73 -51 24 -471 260 -803 453 -172 99 -715 407
-1075 610 -285 160 -325 186 -351 228 -18 31 -19 58 -19 614 l0 583 -42 21
c-24 11 -132 69 -242 127 -223 119 -246 140 -246 222 0 42 13 66 131 256 72
115 205 331 296 479 90 149 177 282 192 296 56 52 310 189 1201 649 344 177
670 346 725 375 261 138 254 135 307 135 47 0 82 -16 394 -175z"/>
<path d="M4410 6884 c-388 -201 -784 -407 -880 -459 -96 -51 -187 -99 -202
-107 -27 -13 -22 -17 290 -181 174 -92 394 -208 487 -258 94 -50 361 -192 594
-317 l425 -225 90 48 c50 26 183 99 296 161 113 62 469 251 791 421 323 169
596 315 608 323 21 14 14 19 -171 117 -640 337 -1613 843 -1620 843 -2 0 -320
-165 -708 -366z"/>
<path d="M2845 5770 c-103 -166 -186 -302 -184 -304 2 -1 110 -58 239 -126
129 -68 350 -185 490 -260 602 -324 1123 -600 1126 -598 10 10 374 600 374
606 0 4 -51 33 -113 64 -61 32 -200 104 -307 161 -227 121 -767 407 -1157 613
-149 79 -274 144 -276 144 -3 0 -89 -135 -192 -300z"/>
<path d="M7010 5966 c-107 -57 -323 -170 -480 -251 -454 -236 -1162 -614
-1178 -630 -2 -1 81 -135 182 -296 102 -162 187 -298 189 -302 1 -5 38 12 82
36 324 180 1102 598 1492 801 l282 147 -39 62 c-21 34 -100 163 -175 287 -76
124 -143 230 -149 237 -8 9 -57 -12 -206 -91z"/>
<path d="M3110 4432 l0 -427 128 -72 c441 -247 943 -534 1467 -838 116 -67
220 -127 233 -134 l22 -12 0 817 0 817 -126 -204 c-70 -112 -138 -216 -153
-232 -35 -38 -91 -54 -144 -40 -23 7 -132 61 -242 121 -110 60 -407 218 -660
352 -253 133 -475 251 -492 261 l-33 18 0 -427z"/>
<path d="M7025 4811 c-49 -26 -281 -151 -515 -276 -234 -125 -501 -271 -595
-323 -158 -89 -175 -96 -235 -100 -97 -6 -113 8 -244 223 -61 100 -121 196
-133 215 l-23 35 0 -817 0 -817 393 226 c785 453 1373 788 1415 807 l42 19 0
429 c0 235 -3 428 -7 428 -5 0 -48 -22 -98 -49z"/>
</g>
</svg>
